HIERARCHY
ROOT pelvis
{
  OFFSET 0 100 0
  CHANNELS 6 Xposition Yposition Zposition Zrotation Xrotation Yrotation
  JOINT pelvis_right_femur
  {
    OFFSET -10.78128 -3.44521 -0.5502486
    CHANNELS 3 Zrotation Xrotation Yrotation
    JOINT right_femur_tibia
    {
      OFFSET -0.8047443 -44.0398 -0.1307829
      CHANNELS 3 Zrotation Xrotation Yrotation
      JOINT right_tibia_foot
      {
        OFFSET 3.006224 -47.83518 -5
        CHANNELS 3 Zrotation Xrotation Yrotation
        End Site
        {
          OFFSET 0 -5 15
        }
      }
    }
  }
  JOINT pelvis_left_femur
  {
    OFFSET 10.78128 -3.44521 -0.5502486
    CHANNELS 3 Zrotation Xrotation Yrotation
    JOINT left_femur_tibia
    {
      OFFSET 0.8047443 -44.0398 -0.1307829
      CHANNELS 3 Zrotation Xrotation Yrotation
      JOINT left_tibia_foot
      {
        OFFSET -4.370144 -48.10324 -4.275266
        CHANNELS 3 Zrotation Xrotation Yrotation
        End Site
        {
          OFFSET 0 -5 15
        }
      }
    }
  }
  JOINT pelvis_spine1
  {
    OFFSET 0 6.468898 -3.129235
    CHANNELS 3 Zrotation Xrotation Yrotation
    JOINT spine1
    {
      OFFSET 0 23.15396 4.99043
      CHANNELS 3 Zrotation Xrotation Yrotation
      JOINT spine2
      {
        OFFSET 0 20.79997 -5.064912
        CHANNELS 3 Zrotation Xrotation Yrotation
        JOINT neck
        {
          OFFSET 0 14.38658 9.616178
          CHANNELS 3 Zrotation Xrotation Yrotation
          End Site
          {
            OFFSET 0 20 0
          }
        }
      }
      JOINT right_manubrium
      {
        OFFSET -5.722621 16.35077 3.967754
        CHANNELS 3 Zrotation Xrotation Yrotation
        JOINT right_clavicle
        {
          OFFSET -13.16364 1.694482 -4.693211
          CHANNELS 3 Zrotation Xrotation Yrotation
          JOINT right_humerus
          {
            OFFSET -28.5034 -0.3100689 -2.792744
            CHANNELS 3 Zrotation Xrotation Yrotation
            JOINT right_radius
            {
              OFFSET -25.15693 0.02248979 -1.271978
              CHANNELS 3 Zrotation Xrotation Yrotation
              End Site
              {
                OFFSET -15 0 0
              }
            }
          }
        }
      }
      JOINT left_manubrium
      {
        OFFSET 5.722621 16.35077 3.967754
        CHANNELS 3 Zrotation Xrotation Yrotation
        JOINT left_clavicle
        {
          OFFSET 13.16364 1.694482 -4.693211
          CHANNELS 3 Zrotation Xrotation Yrotation
          JOINT left_humerus
          {
            OFFSET 29.39168 -1.063119 -2.237045
            CHANNELS 3 Zrotation Xrotation Yrotation
            JOINT left_radius
            {
              OFFSET 24.59957 -0.9528479 0.9047498
              CHANNELS 3 Zrotation Xrotation Yrotation
              End Site
              {
                OFFSET 15 -0 -0
              }
            }
          }
        }
      }
    }
  }
}
MOTION
Frames: 11
Frame Time: 0.0416666666667
0 103.5113 0 3.143323 0.5885905 0.1394563 2.283881 -15.78877 9.918161 -0 38.17572 -0 -4.337163 -19.02335 -2.623089 -9.955177 8.533074 -22.49698 -0 4.778318 -0 21.15609 -9.28168 29.42442 -4.11735 -3.27062 6.134256 1.9878 11.04792 -6.429901 1.595938 22.36606 5.830282 2.638413 -23.79354 9.051251 5.748954 -21.60766 11.08991 85.01435 38.96235 -16.21146 -0 0 15.52639 -7.975267 8.163904 6.321117 4.987732 -19.45034 -3.307751 -90.71026 22.73794 20.72231 0 0 -17.75564 15.77835 11.97336 -1.951405
0.3464936 103.4567 1.623966 2.406455 1.060723 0.2801915 3.711841 -18.23103 10.64955 -0 38.07751 -0 -4.779344 -17.57622 -2.525834 -9.332956 8.702834 -22.47312 -0 4.937456 -0 21.64728 -10.05064 29.96034 -4.128281 -3.282714 6.191917 2.130091 10.65239 -6.462904 1.607816 22.26688 5.861665 2.501545 -24.30719 9.229265 5.43068 -21.93296 11.0441 84.89938 39.4091 -15.96593 -0 0 15.60884 -7.416578 7.92383 6.37073 4.927397 -19.21778 -3.21557 -90.10872 22.92563 20.2043 0 0 -19.31313 16.15758 11.61778 -2.187154
0.5661287 102.4463 5.054466 1.486943 -1.526066 0.48012 2.843627 -24.35872 -1.57452 -0 21.08395 -0 -10.38891 -5.838916 1.635855 -7.60794 13.02884 -16.49919 -0 9.313449 -0 15.45234 -15.6879 22.90469 -4.3803 -2.799412 6.148895 1.384764 11.75117 -5.850186 1.280835 22.46097 6.130468 3.359963 -22.09784 8.210354 5.91473 -21.45492 11.38058 83.5677 38.10022 -13.60844 -0 0 16.59887 -11.55245 8.834116 8.300849 5.05671 -19.39329 -3.243743 -91.07136 20.91242 21.36589 0 0 -13.79762 14.97551 11.10722 -2.236322
0.7419032 101.443 8.94373 1.243193 -1.875766 0.6001777 2.691073 -25.51277 -3.35868 -0 17.54287 -0 -10.89362 -3.437727 2.06671 -7.211117 13.87911 -15.18192 -0 10.41575 -0 13.38937 -16.93212 21.301 -4.755915 -2.993759 6.100657 1.0811 12.4493 -5.673533 1.193508 22.58505 6.258789 3.682519 -21.08126 7.983414 6.24841 -21.6187 11.55709 83.3451 37.84699 -13.07794 -0 0 17.23425 -12.755 8.955287 8.68643 5.232688 -19.56331 -3.492646 -91.44715 19.57765 21.88513 0 0 -11.37365 15.70083 11.02922 -3.556344
0.8322628 100.3884 13.79513 0.8258975 -2.599053 0.7202124 2.753712 -26.99873 -6.096828 -0 12.00281 -0 -11.86126 1.272547 2.656251 -6.607452 15.11897 -12.24239 -0 14.98834 -0 10.57615 -17.67015 18.37483 -4.683279 -2.718867 5.999954 0.7165109 12.92741 -5.474541 1.082946 22.60884 6.428976 4.139426 -20.20438 7.577421 6.396382 -21.29787 11.68318 83.25418 37.16307 -12.66335 -0 0 17.39486 -14.44259 9.387341 9.222822 5.507453 -19.90444 -3.63809 -91.69882 18.67843 21.96061 0 0 -9.763275 15.37823 10.96004 -3.738371
0.8831141 99.41102 19.03938 0.6924441 -2.914265 0.8339995 2.850345 -27.1065 -6.773122 -0 10.11443 -0 -11.89203 2.912538 2.606164 -6.380396 15.49111 -11.08826 -0 17.23793 -0 9.18327 -17.72469 17.23695 -4.827777 -2.777119 5.899594 0.4201803 13.4797 -5.342823 1.002337 22.68448 6.576205 4.505239 -19.37145 7.330139 6.623001 -21.29623 11.81641 83.29317 36.8153 -12.50735 -0 0 17.74619 -15.53894 9.563331 9.400118 5.798019 -20.26799 -3.935494 -91.94875 17.50512 22.16381 0 0 -8.131045 15.98883 11.0435 -4.84708
0.8544919 98.61629 24.95768 0.4532437 -3.649537 0.8891348 3.338163 -26.31933 -7.349949 -0 7.690412 -0 -11.71834 5.452379 2.194703 -5.959213 15.78203 -9.054991 -0 22.75443 -0 6.710458 -17.04134 15.42976 -4.794389 -2.674138 5.800915 0.1860173 13.80808 -5.246349 0.9352756 22.70246 6.703475 4.818216 -18.81895 7.095711 6.699189 -21.15872 11.89715 83.39148 36.41902 -12.445 -0 0 17.84787 -16.49542 9.772758 9.567928 6.055718 -20.59963 -4.136236 -92.03736 16.74198 22.09889 0 0 -7.300583 16.16398 11.08696 -5.388783
0.7718882 98.01748 31.21674 0.3736354 -4.371032 0.8737483 3.679476 -24.97192 -7.51534 -0 6.854221 -0 -11.52809 6.511616 1.808262 -5.717411 15.59768 -7.949205 -0 26.5888 -0 5.247383 -16.25537 14.66945 -4.837292 -2.687324 5.717208 -0.03342147 14.16468 -5.151483 0.8686071 22.74667 6.812357 5.103948 -18.2466 6.88305 6.77689 -21.18248 11.98987 83.48012 36.11535 -12.36616 -0 0 18.10771 -17.30676 9.866733 9.64117 6.29783 -20.93085 -4.416027 -92.14187 15.79538 22.16711 0 0 -6.346236 16.69484 11.17314 -6.304273
0.6085201 97.7352 37.85813 0.2136514 -5.465205 0.6958327 4.400539 -22.36035 -7.065362 -0 6.353632 -0 -10.90121 7.456534 0.9281954 -5.265159 14.78399 -6.585275 -0 32.79313 -0 3.043013 -14.75748 13.9361 -4.830083 -2.656712 5.655957 -0.2060273 14.41101 -5.067823 0.8168821 22.77292 6.887841 5.321979 -17.83129 6.702967 6.762315 -21.22376 12.05925 83.56299 35.834 -12.25809 -0 0 18.32917 -17.97815 9.922672 9.717972 6.471905 -21.17439 -4.6442 -92.18051 15.05296 22.2045 0 0 -5.696774 17.07083 11.20642 -6.991984
0.3751411 97.71286 44.64626 0.1600892 -6.685465 0.3586569 4.864867 -19.48897 -6.82903 -0 6.443327 -0 -10.56252 7.57225 0.3130701 -4.909809 13.56171 -5.767321 -0 37.38538 -0 1.638679 -13.49539 13.9596 -4.83609 -2.655672 5.618487 -0.3631294 14.64951 -4.974751 0.7688318 22.80756 6.93216 5.50159 -17.43444 6.528974 6.69515 -21.38211 12.13571 83.62638 35.56745 -12.06819 -0 0 18.67341 -18.58942 9.902273 9.783413 6.590328 -21.36585 -4.903858 -92.22899 14.24793 22.38321 0 0 -4.956211 17.54903 11.22312 -7.779193
0.06212604 97.99017 51.47621 0.04044106 -8.097018 -0.2023 5.483358 -15.65033 -6.074137 -0 6.882935 -0 -9.936931 7.103785 -0.5763521 -4.361988 11.44254 -5.066224 -0 42.73173 -0 0.01792272 -11.91448 14.35025 -4.820019 -2.636077 5.605957 -0.4884281 14.83376 -4.879715 0.7355253 22.83338 6.939336 5.617485 -17.13367 6.385525 6.544192 -21.61764 12.20517 83.67983 35.30892 -11.79635 -0 0 19.07517 -19.11896 9.832608 9.871505 6.631532 -21.45537 -5.132281 -92.2636 13.53656 22.65634 0 0 -4.253252 17.96178 11.18784 -8.464189
